<?xml version="1.0" encoding="utf-8"?>
<!-- Generator: Adobe Illustrator 20.0.0, SVG Export Plug-In . SVG Version: 6.00 Build 0)  -->
<svg version="1.1" id="Capa_1" xmlns="http://www.w3.org/2000/svg" xmlns:xlink="http://www.w3.org/1999/xlink" x="0px" y="0px"
	 viewBox="0 0 451 451" style="enable-background:new 0 0 451 451;" xml:space="preserve">
<style type="text/css">
	.st0{fill:#FFB900;}
</style>
<g>
	<path class="st0" d="M297.1,279.9c22.9-26.3,36.8-60.7,36.8-98.2C333.9,99.1,266.7,32,184.1,32C101.5,32,34.4,99.2,34.4,181.7
		s67.2,149.7,149.7,149.7c37.5,0,71.9-13.9,98.2-36.8 M85.2,181.8c0-54.5,44.4-98.8,98.8-98.8c54.5,0,98.8,44.4,98.8,98.8
		s-44.3,98.9-98.8,98.9C129.6,280.6,85.2,236.3,85.2,181.8z"/>
</g>
<path class="st0" d="M365.1,405.1l-4.5,3.4c-5.3,4-12.8,3-16.8-2.3l-94.3-124.1c-4-5.3-3-12.8,2.3-16.8l4.5-3.4
	c5.3-4,12.8-3,16.8,2.3l94.3,124.1C371.4,393.6,370.3,401.1,365.1,405.1z"/>
</svg>
