<?xml version="1.0" encoding="utf-8"?>
<!-- Generator: Adobe Illustrator 20.0.0, SVG Export Plug-In . SVG Version: 6.00 Build 0)  -->
<svg version="1.1" id="Layer_1" xmlns="http://www.w3.org/2000/svg" xmlns:xlink="http://www.w3.org/1999/xlink" x="0px" y="0px"
	 viewBox="0 0 297 297" style="enable-background:new 0 0 297 297;" xml:space="preserve">
<style type="text/css">
	.st0{fill:#FFB900;}
	.st1{fill:#F2A700;}
	.st2{fill:#FFFFFF;}
</style>
<g>
	<g>
		<g>
			<circle class="st0" cx="148.5" cy="148.5" r="148.5"/>
		</g>
	</g>
</g>
<path class="st1" d="M244.1,117.1L85.3,240.5l56.3,56.4c2.3,0.1,4.5,0.2,6.8,0.2c75.2,0,137.3-55.9,147.1-128.4L244.1,117.1z"/>
<path class="st2" d="M248.4,124.2c-2.2-6.7-7.8-11.6-14.7-13l-45.8-8.8l-22.5-40.9c-3.4-6.2-9.9-10-16.9-10c-7,0-13.5,3.8-16.9,10
	l-22.5,40.9l-45.8,8.8c-6.9,1.3-12.5,6.3-14.7,13c-2.2,6.7-0.5,14,4.3,19.1l31.9,34L79,223.6c-0.9,7,2.1,13.9,7.8,18
	c5.7,4.1,13.2,4.8,19.5,1.8l42.2-19.8l42.2,19.8c2.6,1.2,5.4,1.8,8.2,1.8c4,0,8-1.2,11.3-3.7c5.7-4.1,8.7-11,7.8-18l-5.8-46.3
	l31.9-34C248.9,138.2,250.5,130.9,248.4,124.2z"/>
</svg>
