<svg id="Layer_1" data-name="Layer 1" xmlns="http://www.w3.org/2000/svg" viewBox="0 0 297 297.1"><defs><style>.cls-1{fill:#ffb900;}.cls-2{fill:#f2a700;}</style></defs><title>Rating system-2</title><path class="cls-1" d="M148.5,0A148.5,148.5,0,1,0,297,148.5,148.5,148.5,0,0,0,148.5,0Zm95.6,143.2-31.9,34,5.8,46.3a19.15,19.15,0,0,1-7.8,18,18.66,18.66,0,0,1-11.3,3.7,19.56,19.56,0,0,1-8.2-1.8l-42.2-19.8-42.2,19.8A19.22,19.22,0,0,1,79,223.6l5.8-46.3-31.9-34a19.25,19.25,0,0,1,10.4-32.1l45.8-8.8,22.5-40.9a19.28,19.28,0,0,1,33.8,0l22.5,40.9,45.8,8.8a19.45,19.45,0,0,1,14.7,13A19.14,19.14,0,0,1,244.1,143.2Z" transform="translate(0 0)"/><path class="cls-2" d="M245,118a19.34,19.34,0,0,1,3.39,6.18,19.14,19.14,0,0,1-4.3,19l-31.9,34,5.8,46.3a19.15,19.15,0,0,1-7.8,18,18.66,18.66,0,0,1-11.3,3.7,19.56,19.56,0,0,1-8.2-1.8l-42.2-19.8-42.2,19.8a19.28,19.28,0,0,1-19.5-1.8c-.5-.36-1-.75-1.43-1.15l-.07.05,56.3,56.4c2.3.1,4.5.2,6.8.2A148.47,148.47,0,0,0,295.5,168.7Z" transform="translate(0 0)"/></svg>